<?xml version="1.0" encoding="utf-8"?>
<!-- Generator: Adobe Illustrator 19.0.0, SVG Export Plug-In . SVG Version: 6.00 Build 0)  -->
<svg version="1.1" id="Layer_1" xmlns="http://www.w3.org/2000/svg" xmlns:xlink="http://www.w3.org/1999/xlink" x="0px" y="0px"
	 viewBox="0 0 612 792" style="enable-background:new 0 0 612 792;" xml:space="preserve">
<style type="text/css">
	.st0{fill:#44B29D;stroke:#000000;stroke-miterlimit:10;}
	.st1{fill:#344D5C;}
	.st2{fill:none;stroke:#000000;stroke-miterlimit:10;}
	.st3{fill:none;stroke:#000000;stroke-width:0.3;}
</style>
<rect x="43" y="232.8" class="st0" width="517.5" height="435"/>
<g>
	<g>
		<path class="st1" d="M434.7,528.4H161.3c-14.9,0-27.1-12.1-27.1-27.1V333.6c0-14.9,12.1-27.1,27.1-27.1h273.4
			c14.9,0,27.1,12.1,27.1,27.1v167.8C461.8,516.3,449.6,528.4,434.7,528.4z"/>
		<path class="st2" d="M434.7,528.4H161.3c-14.9,0-27.1-12.1-27.1-27.1V333.6c0-14.9,12.1-27.1,27.1-27.1h273.4
			c14.9,0,27.1,12.1,27.1,27.1v167.8C461.8,516.3,449.6,528.4,434.7,528.4z"/>
	</g>
	<line class="st3" x1="133.8" y1="252" x2="133.8" y2="288"/>
	<line class="st3" x1="79.8" y1="306" x2="115.8" y2="306"/>
	<line class="st3" x1="79.8" y1="528.9" x2="115.8" y2="528.9"/>
	<line class="st3" x1="133.8" y1="582.9" x2="133.8" y2="546.9"/>
	<line class="st3" x1="462.2" y1="252" x2="462.2" y2="288"/>
	<line class="st3" x1="516.2" y1="306" x2="480.2" y2="306"/>
	<line class="st3" x1="516.2" y1="528.9" x2="480.2" y2="528.9"/>
	<line class="st3" x1="462.2" y1="582.9" x2="462.2" y2="546.9"/>
</g>
</svg>
